<svg id="Capa_1" enable-background="new 0 0 512 512" height="512" viewBox="0 0 512 512" width="512" xmlns="http://www.w3.org/2000/svg" xmlns:xlink="http://www.w3.org/1999/xlink"><linearGradient id="SVGID_1_" gradientUnits="userSpaceOnUse" x1="256" x2="256" y1="512" y2="0"><stop offset="0" stop-color="#c3ffe8"/><stop offset=".9973" stop-color="#f0fff4"/></linearGradient><linearGradient id="SVGID_2_" gradientUnits="userSpaceOnUse" x1="246.5" x2="246.5" y1="114.382" y2="397.618"><stop offset="0" stop-color="#00b59c"/><stop offset="1" stop-color="#9cffac"/></linearGradient><g><g><circle cx="256" cy="256" fill="url(#SVGID_1_)" r="256"/></g><g><g><path d="m218.177 397.618h56.646v-94.41h-56.646zm185.041-168.049-151.057-113.292c-3.356-2.526-7.966-2.526-11.322 0l-151.057 113.292c-4.177 3.125-5.025 9.045-1.89 13.212 3.116 4.167 9.035 5.016 13.212 1.89l22.662-16.995v151.06h-9.441c-5.218 0-9.441 4.223-9.441 9.441s4.223 9.441 9.441 9.441h84.969v-103.852c0-5.218 4.223-9.441 9.441-9.441h75.528c5.218 0 9.441 4.223 9.441 9.441v103.851h84.969c5.219 0 9.441-4.223 9.441-9.441s-4.223-9.441-9.441-9.441h-9.441v-151.06l22.662 16.995c4.182 3.136 10.098 2.278 13.212-1.89 3.136-4.166 2.288-10.085-1.888-13.211zm-241.687-86.859c0-5.218-4.223-9.441-9.441-9.441h-18.882c-5.218 0-9.441 4.223-9.441 9.441v37.768l37.764-28.322z" fill="url(#SVGID_2_)"/></g></g></g></svg>